<mxfile host="app.diagrams.net" agent="Mozilla/5.0 (X11; Ubuntu; Linux x86_64; rv:140.0) Gecko/20100101 Firefox/140.0" version="27.2.0">
  <diagram id="prtHgNgQTEPvFCAcTncT" name="Page-1">
    <mxGraphModel dx="852" dy="483" grid="1" gridSize="10" guides="1" tooltips="1" connect="1" arrows="1" fold="1" page="1" pageScale="1" pageWidth="827" pageHeight="1169" math="0" shadow="0">
      <root>
        <mxCell id="0" />
        <mxCell id="1" parent="0" />
        <mxCell id="CLJ9GDin2j8_AuySWexl-37" value="SGBCZ- Design Flow" style="shape=table;childLayout=tableLayout;startSize=40;collapsible=0;recursiveResize=0;expand=0;fontSize=16;fontStyle=1" vertex="1" parent="1">
          <mxGeometry x="190" y="160" width="640" height="410" as="geometry" />
        </mxCell>
        <mxCell id="CLJ9GDin2j8_AuySWexl-38" value="Design Engineer" style="shape=tableRow;horizontal=0;swimlaneHead=0;swimlaneBody=0;top=0;left=0;strokeColor=inherit;bottom=0;right=0;dropTarget=0;fontStyle=1;fillColor=none;points=[[0,0.5],[1,0.5]];portConstraint=eastwest;startSize=40;collapsible=0;recursiveResize=0;expand=0;fontSize=16;strokeWidth=1;" vertex="1" parent="CLJ9GDin2j8_AuySWexl-37">
          <mxGeometry y="40" width="640" height="170" as="geometry" />
        </mxCell>
        <mxCell id="CLJ9GDin2j8_AuySWexl-39" value="Phase 1" style="swimlane;swimlaneHead=0;swimlaneBody=0;fontStyle=1;strokeColor=inherit;connectable=0;fillColor=none;startSize=40;collapsible=0;recursiveResize=0;expand=0;fontSize=16;" vertex="1" parent="CLJ9GDin2j8_AuySWexl-38">
          <mxGeometry x="40" width="197" height="170" as="geometry">
            <mxRectangle width="197" height="170" as="alternateBounds" />
          </mxGeometry>
        </mxCell>
        <mxCell id="CLJ9GDin2j8_AuySWexl-40" value="Phase 2" style="swimlane;swimlaneHead=0;swimlaneBody=0;fontStyle=1;strokeColor=inherit;connectable=0;fillColor=none;startSize=40;collapsible=0;recursiveResize=0;expand=0;fontSize=16;" vertex="1" parent="CLJ9GDin2j8_AuySWexl-38">
          <mxGeometry x="237" width="196" height="170" as="geometry">
            <mxRectangle width="196" height="170" as="alternateBounds" />
          </mxGeometry>
        </mxCell>
        <mxCell id="CLJ9GDin2j8_AuySWexl-41" value="Phase 3" style="swimlane;swimlaneHead=0;swimlaneBody=0;fontStyle=1;strokeColor=inherit;connectable=0;fillColor=none;startSize=40;collapsible=0;recursiveResize=0;expand=0;fontSize=16;" vertex="1" parent="CLJ9GDin2j8_AuySWexl-38">
          <mxGeometry x="433" width="207" height="170" as="geometry">
            <mxRectangle width="207" height="170" as="alternateBounds" />
          </mxGeometry>
        </mxCell>
        <mxCell id="CLJ9GDin2j8_AuySWexl-42" value="System" style="shape=tableRow;horizontal=0;swimlaneHead=0;swimlaneBody=0;top=0;left=0;strokeColor=inherit;bottom=0;right=0;dropTarget=0;fontStyle=1;fillColor=none;points=[[0,0.5],[1,0.5]];portConstraint=eastwest;startSize=40;collapsible=0;recursiveResize=0;expand=0;fontSize=16;" vertex="1" parent="CLJ9GDin2j8_AuySWexl-37">
          <mxGeometry y="210" width="640" height="200" as="geometry" />
        </mxCell>
        <mxCell id="CLJ9GDin2j8_AuySWexl-43" value="" style="swimlane;swimlaneHead=0;swimlaneBody=0;fontStyle=1;connectable=0;strokeColor=inherit;fillColor=none;startSize=0;collapsible=0;recursiveResize=0;expand=0;fontSize=16;" vertex="1" parent="CLJ9GDin2j8_AuySWexl-42">
          <mxGeometry x="40" width="197" height="200" as="geometry">
            <mxRectangle width="197" height="200" as="alternateBounds" />
          </mxGeometry>
        </mxCell>
        <mxCell id="CLJ9GDin2j8_AuySWexl-44" value="" style="swimlane;swimlaneHead=0;swimlaneBody=0;fontStyle=1;connectable=0;strokeColor=inherit;fillColor=none;startSize=0;collapsible=0;recursiveResize=0;expand=0;fontSize=16;" vertex="1" parent="CLJ9GDin2j8_AuySWexl-42">
          <mxGeometry x="237" width="196" height="200" as="geometry">
            <mxRectangle width="196" height="200" as="alternateBounds" />
          </mxGeometry>
        </mxCell>
        <mxCell id="CLJ9GDin2j8_AuySWexl-45" value="" style="swimlane;swimlaneHead=0;swimlaneBody=0;fontStyle=1;connectable=0;strokeColor=inherit;fillColor=none;startSize=0;collapsible=0;recursiveResize=0;expand=0;fontSize=16;" vertex="1" parent="CLJ9GDin2j8_AuySWexl-42">
          <mxGeometry x="433" width="207" height="200" as="geometry">
            <mxRectangle width="207" height="200" as="alternateBounds" />
          </mxGeometry>
        </mxCell>
      </root>
    </mxGraphModel>
  </diagram>
</mxfile>
